STARTFONT 2.1
FONT -sun-helmetcondensed-bold-i-semicondensed--24-240-75-75-p-111-adobe-fontspecific
SIZE 24 75 75
FONTBOUNDINGBOX 25 29 -3 -5

STARTPROPERTIES 28
FOUNDRY "sun"
FAMILY_NAME "helmetcondensed"
WEIGHT_NAME "bold"
SLANT "i"
SETWIDTH_NAME "semicondensed"
ADD_STYLE_NAME ""
PIXEL_SIZE 25
POINT_SIZE 240
RESOLUTION_X 75
RESOLUTION_Y 75
SPACING "p"
AVERAGE_WIDTH 111
CHARSET_REGISTRY "adobe"
CHARSET_ENCODING "fontspecific"
COPYRIGHT "© 1999 Sun Microsystems, Inc."
RAW_PIXELSIZE 1000
RAW_POINTSIZE 964
RAW_ASCENT 935
RAW_DESCENT 208
RAW_AVERAGE_WIDTH 4444
FACE_NAME "HelmetCondensedBoldItalic"
_XMBDFED_INFO "Edited with xmbdfed 2.4."
WEIGHT 10
X_HEIGHT -1
QUAD_WIDTH 13
DEFAULT_CHAR 4
FONT_DESCENT 5
FONT_ASCENT 24
ENDPROPERTIES

CHARS 209

STARTCHAR char32
ENCODING 32
SWIDTH 21 0
DWIDTH 6 0
BBX 0 0 0 0
BITMAP
ENDCHAR

STARTCHAR char33
ENCODING 33
SWIDTH 17 0
DWIDTH 5 0
BBX 6 18 0 0
BITMAP
0C
0C
0C
1C
18
18
18
18
10
30
30
20
20
20
00
00
60
E0
ENDCHAR

STARTCHAR char34
ENCODING 34
SWIDTH 28 0
DWIDTH 8 0
BBX 8 6 2 12
BITMAP
67
66
22
62
46
8C
ENDCHAR

STARTCHAR char35
ENCODING 35
SWIDTH 10 0
DWIDTH 13 0
BBX 12 18 0 0
BITMAP
0C60
0C60
0C60
0C40
0C40
7FF0
1FF0
18C0
18C0
18C0
1880
FFF0
FFF0
1180
3180
3180
3180
3100
ENDCHAR

STARTCHAR char36
ENCODING 36
SWIDTH 6 0
DWIDTH 12 0
BBX 11 21 0 -2
BITMAP
0100
0380
0FC0
1960
3260
3260
3260
3200
3A00
1C00
0F00
0780
05C0
C8C0
C8C0
C8C0
C980
7B80
3F00
1000
1000
ENDCHAR

STARTCHAR char37
ENCODING 37
SWIDTH 31 0
DWIDTH 19 0
BBX 17 18 0 0
BITMAP
1C1800
3E1000
663000
663000
C66000
C66000
C64600
C6DF00
CCB980
CDB180
F9B180
737180
037180
026180
066300
046300
0C7E00
043C00
ENDCHAR

STARTCHAR char38
ENCODING 38
SWIDTH 10 0
DWIDTH 13 0
BBX 12 18 0 0
BITMAP
0700
0F80
18C0
18C0
18C0
19C0
1F80
0F00
1C00
3E00
6600
C330
C330
C1E0
C1E0
C1C0
7F60
3E60
ENDCHAR

STARTCHAR char39
ENCODING 39
SWIDTH 14 0
DWIDTH 4 0
BBX 4 6 2 12
BITMAP
10
20
40
40
60
E0
ENDCHAR

STARTCHAR char40
ENCODING 40
SWIDTH 28 0
DWIDTH 8 0
BBX 8 22 2 -4
BITMAP
06
0C
18
18
30
30
70
60
60
E0
C0
C0
C0
C0
C0
C0
C0
40
60
60
20
30
ENDCHAR

STARTCHAR char41
ENCODING 41
SWIDTH 28 0
DWIDTH 8 0
BBX 7 22 -3 -4
BITMAP
08
08
0C
0C
04
06
06
06
06
06
06
06
0E
0C
0C
0C
18
18
30
20
40
C0
ENDCHAR

STARTCHAR char42
ENCODING 42
SWIDTH 35 0
DWIDTH 10 0
BBX 8 7 2 11
BITMAP
08
08
C9
3F
18
68
44
ENDCHAR

STARTCHAR char43
ENCODING 43
SWIDTH 10 0
DWIDTH 13 0
BBX 11 11 0 2
BITMAP
0600
0600
0600
0600
0600
FFE0
FFE0
0600
0600
0600
0600
ENDCHAR

STARTCHAR char44
ENCODING 44
SWIDTH 14 0
DWIDTH 4 0
BBX 4 5 -2 -3
BITMAP
70
60
20
60
C0
ENDCHAR

STARTCHAR char45
ENCODING 45
SWIDTH 35 0
DWIDTH 10 0
BBX 6 2 1 6
BITMAP
FC
FC
ENDCHAR

STARTCHAR char46
ENCODING 46
SWIDTH 14 0
DWIDTH 4 0
BBX 3 2 -1 0
BITMAP
60
E0
ENDCHAR

STARTCHAR char47
ENCODING 47
SWIDTH 21 0
DWIDTH 6 0
BBX 11 18 -1 0
BITMAP
0060
0040
00C0
0180
0180
0300
0300
0600
0600
0C00
0800
1800
1000
3000
2000
6000
4000
C000
ENDCHAR

STARTCHAR char48
ENCODING 48
SWIDTH 6 0
DWIDTH 12 0
BBX 11 18 0 0
BITMAP
0780
0FC0
18E0
3860
3060
7060
6060
6060
6060
60C0
C0C0
C0C0
C0C0
C180
C180
E380
7F00
3E00
ENDCHAR

STARTCHAR char49
ENCODING 49
SWIDTH 6 0
DWIDTH 12 0
BBX 7 18 2 0
BITMAP
06
0C
1C
FC
FC
0C
18
18
18
18
10
30
30
30
30
60
60
60
ENDCHAR

STARTCHAR char50
ENCODING 50
SWIDTH 6 0
DWIDTH 12 0
BBX 12 18 -1 0
BITMAP
03C0
0FE0
0C70
1830
1830
0030
0030
0060
00E0
01C0
0780
0E00
1C00
3000
6000
6000
7FC0
FFC0
ENDCHAR

STARTCHAR char51
ENCODING 51
SWIDTH 6 0
DWIDTH 12 0
BBX 11 18 0 0
BITMAP
0780
0FC0
1860
1060
3060
0060
00E0
01C0
0F80
0F00
0180
00C0
00C0
C0C0
C1C0
E180
7F80
3E00
ENDCHAR

STARTCHAR char52
ENCODING 52
SWIDTH 6 0
DWIDTH 12 0
BBX 11 18 0 0
BITMAP
0060
00E0
01E0
0340
02C0
06C0
0CC0
18C0
3080
3180
6180
C180
FFC0
FFC0
0300
0300
0300
0600
ENDCHAR

STARTCHAR char53
ENCODING 53
SWIDTH 6 0
DWIDTH 12 0
BBX 11 18 0 0
BITMAP
0FE0
1FE0
1800
1800
1000
3000
3F00
3F80
71C0
60C0
00C0
00C0
00C0
C0C0
C180
E180
7F00
3E00
ENDCHAR

STARTCHAR char54
ENCODING 54
SWIDTH 6 0
DWIDTH 12 0
BBX 11 18 0 0
BITMAP
0780
0FC0
1C60
3860
3060
7000
6F00
7F80
F1C0
E0C0
E0C0
C0C0
C0C0
C0C0
C180
E180
7F00
3E00
ENDCHAR

STARTCHAR char55
ENCODING 55
SWIDTH 6 0
DWIDTH 12 0
BBX 10 18 2 0
BITMAP
FFC0
FFC0
0180
0300
0200
0600
0C00
0C00
1800
1800
3000
3000
6000
6000
6000
C000
C000
C000
ENDCHAR

STARTCHAR char56
ENCODING 56
SWIDTH 6 0
DWIDTH 12 0
BBX 11 18 0 0
BITMAP
0F80
1FC0
18E0
3060
3060
3060
30E0
38C0
1F80
3F80
6180
C0C0
C0C0
C0C0
C180
C180
7F00
3E00
ENDCHAR

STARTCHAR char57
ENCODING 57
SWIDTH 6 0
DWIDTH 12 0
BBX 11 18 0 0
BITMAP
0780
1FC0
38C0
3060
3060
6060
6060
6060
60E0
31E0
3FC0
1EC0
00C0
0180
C180
C300
7F00
3C00
ENDCHAR

STARTCHAR char58
ENCODING 58
SWIDTH 17 0
DWIDTH 5 0
BBX 5 13 0 0
BITMAP
18
18
00
00
00
00
00
00
00
00
00
60
E0
ENDCHAR

STARTCHAR char59
ENCODING 59
SWIDTH 17 0
DWIDTH 5 0
BBX 6 16 -1 -3
BITMAP
0C
0C
00
00
00
00
00
00
00
00
00
70
60
20
20
40
ENDCHAR

STARTCHAR char60
ENCODING 60
SWIDTH 17 0
DWIDTH 15 0
BBX 13 13 0 0
BITMAP
0008
0038
00F0
03C0
0E00
7800
E000
7000
1E00
0780
01E0
0078
0008
ENDCHAR

STARTCHAR char61
ENCODING 61
SWIDTH 10 0
DWIDTH 13 0
BBX 13 7 -1 4
BITMAP
FFF8
FFF8
0000
0000
0000
FFF8
FFF8
ENDCHAR

STARTCHAR char62
ENCODING 62
SWIDTH 17 0
DWIDTH 15 0
BBX 12 13 1 0
BITMAP
8000
E000
7800
1E00
0780
00E0
0030
00F0
03C0
0F00
3C00
E000
8000
ENDCHAR

STARTCHAR char63
ENCODING 63
SWIDTH 35 0
DWIDTH 10 0
BBX 9 18 1 0
BITMAP
1E00
7F00
6180
C180
C180
0180
0300
0700
0E00
1C00
3000
3000
2000
6000
0000
0000
6000
6000
ENDCHAR

STARTCHAR char64
ENCODING 64
SWIDTH 24 0
DWIDTH 27 0
BBX 18 19 4 0
BITMAP
01F000
07F800
1C0E00
300700
600180
63ED80
C7FCC0
CE1CC0
CC18C0
DC18C0
D818C0
D83180
D83100
DC7300
4FFE00
679980
380300
1FFC00
07F000
ENDCHAR

STARTCHAR char65
ENCODING 65
SWIDTH 3 0
DWIDTH 11 0
BBX 12 18 -2 0
BITMAP
00E0
01E0
01E0
0360
0360
0660
0660
0460
0C60
0C60
1870
1FF0
3FF0
3030
6030
6030
C030
C030
ENDCHAR

STARTCHAR char66
ENCODING 66
SWIDTH 6 0
DWIDTH 12 0
BBX 13 18 -1 0
BITMAP
0FC0
0FF0
0C38
1818
1818
1818
1838
1870
3FC0
3FC0
3060
3070
7070
6070
6060
60E0
7FC0
FF00
ENDCHAR

STARTCHAR char67
ENCODING 67
SWIDTH 10 0
DWIDTH 13 0
BBX 12 18 0 0
BITMAP
07C0
0FE0
1C30
3830
3030
7030
7000
6000
E000
E000
C000
C000
C060
C060
C0C0
61C0
7F80
1F00
ENDCHAR

STARTCHAR char68
ENCODING 68
SWIDTH 13 0
DWIDTH 14 0
BBX 14 18 -1 0
BITMAP
0FE0
0FF8
1838
181C
180C
180C
180C
300C
300C
300C
301C
3018
6038
6038
6070
60E0
7FC0
FF00
ENDCHAR

STARTCHAR char69
ENCODING 69
SWIDTH 3 0
DWIDTH 11 0
BBX 13 18 -1 0
BITMAP
0FF0
0FF0
0C00
1C00
1800
1800
1800
1800
3FE0
3FE0
3000
3000
3000
6000
6000
6000
7FC0
7F80
ENDCHAR

STARTCHAR char70
ENCODING 70
SWIDTH 3 0
DWIDTH 11 0
BBX 12 18 -1 0
BITMAP
0FF0
0FF0
0C00
1C00
1800
1800
1800
1800
3FC0
3FC0
3000
3000
3000
6000
6000
6000
6000
E000
ENDCHAR

STARTCHAR char71
ENCODING 71
SWIDTH 10 0
DWIDTH 13 0
BBX 13 18 0 0
BITMAP
07C0
0FF0
1C30
3830
3018
7018
7000
6000
E000
E3F8
E3F0
C030
C030
C060
C060
60E0
7FE0
1E20
ENDCHAR

STARTCHAR char72
ENCODING 72
SWIDTH 13 0
DWIDTH 14 0
BBX 14 18 -1 0
BITMAP
0C0C
0C0C
0C0C
180C
180C
1818
1818
3818
3FF8
3FF8
3030
3030
7030
6030
6060
6060
6060
4060
ENDCHAR

STARTCHAR char73
ENCODING 73
SWIDTH 17 0
DWIDTH 5 0
BBX 5 18 0 0
BITMAP
18
18
18
18
18
30
30
30
30
70
60
60
60
60
E0
C0
C0
C0
ENDCHAR

STARTCHAR char74
ENCODING 74
SWIDTH 35 0
DWIDTH 10 0
BBX 11 18 -1 0
BITMAP
0060
0060
0060
0060
00E0
00C0
00C0
00C0
00C0
01C0
0180
0180
0180
C180
C300
C300
FE00
3C00
ENDCHAR

STARTCHAR char75
ENCODING 75
SWIDTH 6 0
DWIDTH 12 0
BBX 15 18 -1 0
BITMAP
0C0E
0C1C
0C38
1870
18E0
19C0
1B80
1F00
3F00
3D80
3980
3180
70C0
60C0
60E0
6060
6060
6070
ENDCHAR

STARTCHAR char76
ENCODING 76
SWIDTH 35 0
DWIDTH 10 0
BBX 9 18 0 0
BITMAP
1800
1800
1800
3000
3000
3000
3000
3000
6000
6000
6000
6000
6000
C000
C000
C000
FF80
FF80
ENDCHAR

STARTCHAR char77
ENCODING 77
SWIDTH 28 0
DWIDTH 18 0
BBX 18 18 -1 0
BITMAP
0E01C0
0E03C0
1A03C0
1A02C0
1A06C0
1A0580
3A0D80
320D80
321980
321B80
323300
623300
626300
626300
62C600
62C600
C38600
C38600
ENDCHAR

STARTCHAR char78
ENCODING 78
SWIDTH 13 0
DWIDTH 14 0
BBX 15 18 -1 0
BITMAP
0E06
0E06
0A06
1B0C
1B0C
1B0C
1B0C
3B08
3118
3198
3198
3198
6190
61B0
60B0
60F0
60F0
40E0
ENDCHAR

STARTCHAR char79
ENCODING 79
SWIDTH 10 0
DWIDTH 13 0
BBX 13 18 0 0
BITMAP
07C0
0FF0
1C30
3818
3018
3018
6018
6018
6018
E038
C030
C030
C030
C060
C060
60C0
71C0
1F00
ENDCHAR

STARTCHAR char80
ENCODING 80
SWIDTH 6 0
DWIDTH 12 0
BBX 13 18 -1 0
BITMAP
0FE0
0FF0
0C38
1C18
1818
1818
1818
1838
3070
3FE0
3FC0
3000
7000
6000
6000
6000
6000
E000
ENDCHAR

STARTCHAR char81
ENCODING 81
SWIDTH 10 0
DWIDTH 13 0
BBX 13 19 0 -1
BITMAP
07C0
0FF0
1C30
3818
3018
7018
6018
6018
E018
E038
C030
C030
C070
C060
C360
63C0
7FC0
1F60
0040
ENDCHAR

STARTCHAR char82
ENCODING 82
SWIDTH 10 0
DWIDTH 13 0
BBX 14 18 -1 0
BITMAP
0FE0
0FF8
0C38
180C
180C
180C
181C
3838
3FE0
3FE0
3070
3030
7030
6030
6070
6060
6060
4070
ENDCHAR

STARTCHAR char83
ENCODING 83
SWIDTH 6 0
DWIDTH 12 0
BBX 12 18 0 0
BITMAP
07C0
1FE0
1860
3070
3070
3000
3000
3800
1E00
0780
0180
00C0
00C0
C0C0
C0C0
6080
7F00
3E00
ENDCHAR

STARTCHAR char84
ENCODING 84
SWIDTH 35 0
DWIDTH 10 0
BBX 11 18 1 0
BITMAP
7FE0
7FC0
0E00
0C00
0C00
0C00
0C00
1C00
1800
1800
1800
1800
3000
3000
3000
3000
7000
6000
ENDCHAR

STARTCHAR char85
ENCODING 85
SWIDTH 10 0
DWIDTH 13 0
BBX 13 18 0 0
BITMAP
1818
3818
3018
3018
3018
3030
7030
6030
6030
6030
6060
E060
C060
C060
C0C0
E0C0
7F80
3F00
ENDCHAR

STARTCHAR char86
ENCODING 86
SWIDTH 3 0
DWIDTH 11 0
BBX 12 18 2 0
BITMAP
C070
C060
C0E0
C0C0
C0C0
E180
E180
E300
E300
E200
E600
E400
6C00
6800
7800
7000
7000
7000
ENDCHAR

STARTCHAR char87
ENCODING 87
SWIDTH 24 0
DWIDTH 17 0
BBX 19 18 1 0
BITMAP
C0E0E0
E0E0C0
E1E0C0
E1E1C0
E16180
E36180
E36300
E66300
666300
666600
6C6600
6C6400
686C00
786C00
786800
707800
707000
707000
ENDCHAR

STARTCHAR char88
ENCODING 88
SWIDTH 3 0
DWIDTH 11 0
BBX 14 18 -2 0
BITMAP
181C
1818
1830
0C70
0C60
0EC0
07C0
0780
0300
0700
0780
0D80
1D80
18C0
30C0
70E0
E060
C060
ENDCHAR

STARTCHAR char89
ENCODING 89
SWIDTH 3 0
DWIDTH 11 0
BBX 11 18 2 0
BITMAP
C0C0
C0C0
C180
C380
C300
6700
6600
6C00
6C00
7800
3000
3000
3000
6000
6000
6000
6000
E000
ENDCHAR

STARTCHAR char90
ENCODING 90
SWIDTH 35 0
DWIDTH 10 0
BBX 13 18 -2 0
BITMAP
1FF8
1FF0
0030
0060
00E0
00C0
0180
0380
0300
0600
0E00
0C00
1800
3800
3000
6000
FFC0
FFC0
ENDCHAR

STARTCHAR char91
ENCODING 91
SWIDTH 21 0
DWIDTH 6 0
BBX 9 23 -1 -4
BITMAP
0780
0F80
0C00
0C00
0C00
0C00
1800
1800
1800
1800
1000
3000
3000
3000
3000
6000
6000
6000
6000
4000
C000
F000
7000
ENDCHAR

STARTCHAR char92
ENCODING 92
SWIDTH 25 0
DWIDTH 7 0
BBX 7 18 0 0
BITMAP
C0
C0
40
40
60
60
20
30
30
10
18
18
08
0C
0C
04
06
06
ENDCHAR

STARTCHAR char93
ENCODING 93
SWIDTH 21 0
DWIDTH 6 0
BBX 10 23 -3 -4
BITMAP
07C0
0780
0180
0180
0180
0180
0300
0300
0300
0300
0200
0600
0600
0600
0600
0C00
0C00
0C00
0C00
0800
1800
7800
7800
ENDCHAR

STARTCHAR char94
ENCODING 94
SWIDTH 0 0
DWIDTH 0 0
BBX 7 3 -1 19
BITMAP
3C
64
46
ENDCHAR

STARTCHAR char95
ENCODING 95
SWIDTH 17 0
DWIDTH 15 0
BBX 14 2 0 -3
BITMAP
FFFC
FFFC
ENDCHAR

STARTCHAR char96
ENCODING 96
SWIDTH 0 0
DWIDTH 0 0
BBX 3 4 -1 14
BITMAP
C0
60
60
20
ENDCHAR

STARTCHAR char97
ENCODING 97
SWIDTH 35 0
DWIDTH 10 0
BBX 10 13 -1 0
BITMAP
0F80
1FC0
30C0
00C0
01C0
0780
3F80
7180
C180
C180
C300
FF80
7980
ENDCHAR

STARTCHAR char98
ENCODING 98
SWIDTH 3 0
DWIDTH 11 0
BBX 11 18 -1 0
BITMAP
1800
1800
1800
1800
1800
3780
3FC0
3060
3060
3060
6060
6060
60E0
60C0
E0C0
E180
F780
5E00
ENDCHAR

STARTCHAR char99
ENCODING 99
SWIDTH 35 0
DWIDTH 10 0
BBX 9 13 0 0
BITMAP
1F00
3780
6180
6080
6000
C000
C000
C000
C000
C300
C300
7E00
3C00
ENDCHAR

STARTCHAR char100
ENCODING 100
SWIDTH 3 0
DWIDTH 11 0
BBX 11 18 0 0
BITMAP
0060
0060
0060
0060
00C0
1EC0
3FC0
71C0
6180
6180
C180
C180
C180
C100
C300
C700
FF00
7900
ENDCHAR

STARTCHAR char101
ENCODING 101
SWIDTH 35 0
DWIDTH 10 0
BBX 9 13 0 0
BITMAP
1F00
3F80
6180
6180
4180
FF80
FF80
C000
C000
C100
C300
7E00
3C00
ENDCHAR

STARTCHAR char102
ENCODING 102
SWIDTH 17 0
DWIDTH 5 0
BBX 7 18 0 0
BITMAP
0E
0E
18
18
18
7C
7C
30
30
30
20
60
60
60
60
C0
C0
C0
ENDCHAR

STARTCHAR char103
ENCODING 103
SWIDTH 3 0
DWIDTH 11 0
BBX 11 17 -1 -4
BITMAP
0F40
1FE0
30E0
30C0
20C0
60C0
60C0
6080
6180
6180
6380
3F80
3D00
0300
C300
FE00
7C00
ENDCHAR

STARTCHAR char104
ENCODING 104
SWIDTH 3 0
DWIDTH 11 0
BBX 11 18 -1 0
BITMAP
0C00
0C00
0800
1800
1800
1BC0
1F60
1860
3060
3060
3040
3040
60C0
60C0
60C0
6080
6180
C180
ENDCHAR

STARTCHAR char105
ENCODING 105
SWIDTH 17 0
DWIDTH 5 0
BBX 5 18 0 0
BITMAP
18
18
00
00
00
30
30
30
20
60
60
60
60
C0
C0
C0
C0
C0
ENDCHAR

STARTCHAR char106
ENCODING 106
SWIDTH 17 0
DWIDTH 5 0
BBX 8 22 -3 -4
BITMAP
03
03
00
00
00
06
06
06
06
0C
0C
0C
0C
0C
18
18
18
18
10
30
F0
E0
ENDCHAR

STARTCHAR char107
ENCODING 107
SWIDTH 32 0
DWIDTH 9 0
BBX 12 18 -1 0
BITMAP
0C00
0C00
0C00
1800
1800
1860
18C0
1980
3300
3600
3E00
3E00
3600
6300
6300
6300
6180
C180
ENDCHAR

STARTCHAR char108
ENCODING 108
SWIDTH 17 0
DWIDTH 5 0
BBX 5 18 0 0
BITMAP
18
18
18
18
30
30
30
30
30
60
60
60
60
C0
C0
C0
C0
C0
ENDCHAR

STARTCHAR char109
ENCODING 109
SWIDTH 24 0
DWIDTH 17 0
BBX 17 13 -1 0
BITMAP
1FCF00
1FF180
386180
306180
30C180
30C100
20C100
60C300
60C300
618300
618300
C18600
C18600
ENDCHAR

STARTCHAR char110
ENCODING 110
SWIDTH 3 0
DWIDTH 11 0
BBX 11 13 -1 0
BITMAP
1BC0
1FE0
1860
3060
3060
3040
3040
20C0
60C0
60C0
60C0
6180
C180
ENDCHAR

STARTCHAR char111
ENCODING 111
SWIDTH 3 0
DWIDTH 11 0
BBX 10 13 0 0
BITMAP
1F00
3F80
71C0
60C0
40C0
C0C0
C0C0
C1C0
C180
C180
C380
7F00
3C00
ENDCHAR

STARTCHAR char112
ENCODING 112
SWIDTH 3 0
DWIDTH 11 0
BBX 12 17 -2 -4
BITMAP
0DE0
0FF0
0C30
1830
1830
1830
1030
3030
3060
3060
38C0
6FC0
6780
6000
6000
6000
C000
ENDCHAR

STARTCHAR char113
ENCODING 113
SWIDTH 3 0
DWIDTH 11 0
BBX 10 17 0 -4
BITMAP
1E40
3FC0
71C0
60C0
60C0
C080
C180
C180
C180
C380
C300
7F00
3B00
0300
0600
0600
0600
ENDCHAR

STARTCHAR char114
ENCODING 114
SWIDTH 25 0
DWIDTH 7 0
BBX 8 13 0 0
BITMAP
33
3F
38
30
60
60
60
60
C0
C0
C0
C0
80
ENDCHAR

STARTCHAR char115
ENCODING 115
SWIDTH 32 0
DWIDTH 9 0
BBX 10 13 -1 0
BITMAP
0F00
1FC0
30C0
3000
3000
1C00
0E00
0300
0180
C180
E380
7F00
3E00
ENDCHAR

STARTCHAR char116
ENCODING 116
SWIDTH 21 0
DWIDTH 6 0
BBX 7 17 0 0
BITMAP
18
18
18
18
7C
FC
30
30
70
60
60
60
E0
C0
C0
F0
70
ENDCHAR

STARTCHAR char117
ENCODING 117
SWIDTH 3 0
DWIDTH 11 0
BBX 11 13 0 0
BITMAP
3060
30C0
20C0
60C0
60C0
60C0
4180
4180
C180
C180
C300
FF00
7900
ENDCHAR

STARTCHAR char118
ENCODING 118
SWIDTH 32 0
DWIDTH 9 0
BBX 9 13 1 0
BITMAP
C180
C300
C300
C600
C600
CC00
CC00
D800
D800
F000
F000
E000
E000
ENDCHAR

STARTCHAR char119
ENCODING 119
SWIDTH 10 0
DWIDTH 13 0
BBX 15 13 0 0
BITMAP
C386
C38C
C78C
C798
CF98
CD98
DD30
D930
F960
F160
F1C0
E1C0
E180
ENDCHAR

STARTCHAR char120
ENCODING 120
SWIDTH 32 0
DWIDTH 9 0
BBX 12 13 -2 0
BITMAP
1830
1860
0CC0
0DC0
0D80
0700
0600
0F00
1B00
3980
3180
6180
E0C0
ENDCHAR

STARTCHAR char121
ENCODING 121
SWIDTH 32 0
DWIDTH 9 0
BBX 12 17 -3 -4
BITMAP
1830
1860
1860
18C0
18C0
1980
1980
1B00
1B00
1E00
1E00
1C00
1C00
1800
1800
7000
E000
ENDCHAR

STARTCHAR char122
ENCODING 122
SWIDTH 32 0
DWIDTH 9 0
BBX 10 13 -1 0
BITMAP
1FC0
3FC0
00C0
0180
0300
0600
0C00
1800
3000
6000
E000
FF00
FF00
ENDCHAR

STARTCHAR char123
ENCODING 123
SWIDTH 32 0
DWIDTH 9 0
BBX 6 23 1 -5
BITMAP
1C
3C
30
30
30
30
30
30
30
30
60
C0
60
30
30
30
30
30
30
30
30
3C
1C
ENDCHAR

STARTCHAR char124
ENCODING 124
SWIDTH 25 0
DWIDTH 7 0
BBX 2 18 2 0
BITMAP
C0
C0
C0
C0
C0
C0
C0
C0
C0
C0
C0
C0
C0
C0
C0
C0
C0
C0
ENDCHAR

STARTCHAR char125
ENCODING 125
SWIDTH 32 0
DWIDTH 9 0
BBX 6 23 1 -5
BITMAP
E0
F0
30
30
30
30
30
30
30
38
1C
0C
18
38
30
30
30
30
30
30
30
F0
E0
ENDCHAR

STARTCHAR char126
ENCODING 126
SWIDTH 0 0
DWIDTH 0 0
BBX 6 2 0 20
BITMAP
7C
9C
ENDCHAR

STARTCHAR char128
ENCODING 128
SWIDTH 13 0
DWIDTH 14 0
BBX 14 18 -1 0
BITMAP
01F0
03F8
0718
0E0C
0C0C
1C0C
7E00
1FE0
FC00
37E0
3000
3000
3018
3030
3030
1870
1FE0
0FC0
ENDCHAR

STARTCHAR char130
ENCODING 130
SWIDTH 14 0
DWIDTH 4 0
BBX 3 5 -1 -3
BITMAP
60
60
20
40
C0
ENDCHAR

STARTCHAR char131
ENCODING 131
SWIDTH 0 0
DWIDTH 0 0
BBX 7 3 -1 19
BITMAP
3C
64
46
ENDCHAR

STARTCHAR char132
ENCODING 132
SWIDTH 28 0
DWIDTH 8 0
BBX 8 5 -2 -3
BITMAP
73
67
22
22
C4
ENDCHAR

STARTCHAR char133
ENCODING 133
SWIDTH 24 0
DWIDTH 27 0
BBX 19 3 3 0
BITMAP
E0E0E0
E0E0E0
E0E0E0
ENDCHAR

STARTCHAR char134
ENCODING 134
SWIDTH 3 0
DWIDTH 11 0
BBX 10 22 1 -4
BITMAP
0600
0600
0600
0C00
0C00
FC00
FFC0
0800
1800
1800
1800
1800
3000
3000
3000
3000
3000
6000
6000
6000
6000
4000
ENDCHAR

STARTCHAR char135
ENCODING 135
SWIDTH 16 0
DWIDTH 25 0
BBX 0 0 0 0
BITMAP
ENDCHAR

STARTCHAR char136
ENCODING 136
SWIDTH 0 0
DWIDTH 0 0
BBX 6 4 -1 14
BITMAP
38
78
CC
84
ENDCHAR

STARTCHAR char137
ENCODING 137
SWIDTH 16 0
DWIDTH 25 0
BBX 0 0 0 0
BITMAP
ENDCHAR

STARTCHAR char139
ENCODING 139
SWIDTH 32 0
DWIDTH 9 0
BBX 4 8 2 3
BITMAP
10
30
70
C0
C0
60
30
10
ENDCHAR

STARTCHAR char140
ENCODING 140
SWIDTH 31 0
DWIDTH 19 0
BBX 19 18 0 0
BITMAP
079FE0
0FDFE0
1C7800
383800
303000
703000
603000
603000
603FC0
E07FC0
C06000
C06000
C06000
C0E000
C0C000
E3C000
7FFF80
3C0700
ENDCHAR

STARTCHAR char142
ENCODING 142
SWIDTH 16 0
DWIDTH 25 0
BBX 0 0 0 0
BITMAP
ENDCHAR

STARTCHAR char143
ENCODING 143
SWIDTH 16 0
DWIDTH 25 0
BBX 0 0 0 0
BITMAP
ENDCHAR

STARTCHAR char144
ENCODING 144
SWIDTH 16 0
DWIDTH 25 0
BBX 0 0 0 0
BITMAP
ENDCHAR

STARTCHAR char145
ENCODING 145
SWIDTH 14 0
DWIDTH 4 0
BBX 3 6 2 12
BITMAP
20
60
40
C0
C0
C0
ENDCHAR

STARTCHAR char146
ENCODING 146
SWIDTH 14 0
DWIDTH 4 0
BBX 3 6 2 12
BITMAP
60
60
60
40
40
80
ENDCHAR

STARTCHAR char147
ENCODING 147
SWIDTH 28 0
DWIDTH 8 0
BBX 7 6 2 12
BITMAP
22
66
C4
8C
CC
CC
ENDCHAR

STARTCHAR char148
ENCODING 148
SWIDTH 28 0
DWIDTH 8 0
BBX 8 6 1 12
BITMAP
73
67
22
22
66
C4
ENDCHAR

STARTCHAR char149
ENCODING 149
SWIDTH 32 0
DWIDTH 9 0
BBX 7 6 1 6
BITMAP
38
7C
FE
FE
FE
38
ENDCHAR

STARTCHAR char150
ENCODING 150
SWIDTH 6 0
DWIDTH 12 0
BBX 11 2 0 6
BITMAP
7FE0
FFC0
ENDCHAR

STARTCHAR char151
ENCODING 151
SWIDTH 10 0
DWIDTH 13 0
BBX 13 2 -1 6
BITMAP
FFF8
FFF8
ENDCHAR

STARTCHAR char152
ENCODING 152
SWIDTH 0 0
DWIDTH 0 0
BBX 7 3 -1 15
BITMAP
70
FC
98
ENDCHAR

STARTCHAR char153
ENCODING 153
SWIDTH 6 0
DWIDTH 22 0
BBX 21 9 -1 7
BITMAP
FFB030
89B050
183870
1828B0
182CB0
182530
182730
182330
3C7278
ENDCHAR

STARTCHAR char155
ENCODING 155
SWIDTH 32 0
DWIDTH 9 0
BBX 4 8 2 3
BITMAP
80
C0
70
30
30
70
C0
80
ENDCHAR

STARTCHAR char156
ENCODING 156
SWIDTH 24 0
DWIDTH 17 0
BBX 16 13 0 0
BITMAP
1F3E
31FF
61E3
61C3
40C3
C1FF
C1FF
C180
C180
C382
C386
FECC
3C78
ENDCHAR

STARTCHAR char157
ENCODING 157
SWIDTH 16 0
DWIDTH 25 0
BBX 0 0 0 0
BITMAP
ENDCHAR

STARTCHAR char159
ENCODING 159
SWIDTH 3 0
DWIDTH 11 0
BBX 11 22 2 0
BITMAP
1B80
3300
0000
0000
C0E0
C0C0
C180
C180
C300
6700
6600
6C00
6C00
7800
3000
3000
3000
6000
6000
6000
6000
E000
ENDCHAR

STARTCHAR char160
ENCODING 160
SWIDTH 21 0
DWIDTH 6 0
BBX 0 0 0 0
BITMAP
ENDCHAR

STARTCHAR char161
ENCODING 161
SWIDTH 17 0
DWIDTH 5 0
BBX 6 18 0 0
BITMAP
0C
0C
00
00
00
08
18
10
10
30
30
30
70
60
60
60
E0
E0
ENDCHAR

STARTCHAR char162
ENCODING 162
SWIDTH 35 0
DWIDTH 10 0
BBX 10 18 0 -3
BITMAP
0200
0600
1F00
3580
64C0
64C0
6800
C800
C800
C800
C800
D380
D300
FF00
3C00
2000
2000
2000
ENDCHAR

STARTCHAR char163
ENCODING 163
SWIDTH 6 0
DWIDTH 12 0
BBX 13 18 -1 0
BITMAP
03E0
0FF0
1C38
1818
1818
1818
1800
1800
1F80
7F80
1800
1800
1800
1000
3000
6000
FFF0
47E0
ENDCHAR

STARTCHAR char164
ENCODING 164
SWIDTH 0 0
DWIDTH 0 0
BBX 4 3 2 19
BITMAP
60
40
80
ENDCHAR

STARTCHAR char165
ENCODING 165
SWIDTH 0 0
DWIDTH 0 0
BBX 7 3 0 19
BITMAP
4C
78
30
ENDCHAR

STARTCHAR char166
ENCODING 166
SWIDTH 16 0
DWIDTH 25 0
BBX 0 0 0 0
BITMAP
ENDCHAR

STARTCHAR char167
ENCODING 167
SWIDTH 6 0
DWIDTH 12 0
BBX 11 22 0 -4
BITMAP
07C0
0FE0
1860
1820
1800
0C00
0E00
3F00
6380
60C0
60E0
6060
3060
1860
0DC0
0700
0300
0380
C180
C180
FF00
7E00
ENDCHAR

STARTCHAR char168
ENCODING 168
SWIDTH 0 0
DWIDTH 0 0
BBX 6 2 -1 15
BITMAP
CC
CC
ENDCHAR

STARTCHAR char169
ENCODING 169
SWIDTH 31 0
DWIDTH 19 0
BBX 18 17 0 0
BITMAP
03E000
07F800
1C0C00
300200
21F100
43F180
C60880
CC08C0
CC00C0
CC00C0
CC00C0
C40080
47D180
21E100
300200
0FFC00
07F000
ENDCHAR

STARTCHAR char170
ENCODING 170
SWIDTH 0 0
DWIDTH 0 0
BBX 6 2 0 20
BITMAP
CC
CC
ENDCHAR

STARTCHAR char171
ENCODING 171
SWIDTH 3 0
DWIDTH 11 0
BBX 8 9 1 2
BITMAP
11
33
66
CC
88
CC
66
62
22
ENDCHAR

STARTCHAR char172
ENCODING 172
SWIDTH 24 0
DWIDTH 17 0
BBX 16 7 0 0
BITMAP
FFFF
FFFF
0003
0003
0003
0003
0003
ENDCHAR

STARTCHAR char173
ENCODING 173
SWIDTH 16 0
DWIDTH 25 0
BBX 0 0 0 0
BITMAP
ENDCHAR

STARTCHAR char174
ENCODING 174
SWIDTH 31 0
DWIDTH 19 0
BBX 18 17 0 0
BITMAP
03E000
07F800
0C0C00
100600
27E300
433180
433080
C330C0
C3C0C0
C3E0C0
C360C0
C37080
433980
67BD00
300200
1FFC00
07F000
ENDCHAR

STARTCHAR char175
ENCODING 175
SWIDTH 16 0
DWIDTH 25 0
BBX 0 0 0 0
BITMAP
ENDCHAR

STARTCHAR char176
ENCODING 176
SWIDTH 21 0
DWIDTH 6 0
BBX 9 8 1 9
BITMAP
1C00
3E00
4300
C180
C180
4100
3E00
1C00
ENDCHAR

STARTCHAR char177
ENCODING 177
SWIDTH 10 0
DWIDTH 13 0
BBX 12 16 0 0
BITMAP
0600
0600
0600
0600
0600
0600
FFF0
FFF0
0600
0600
0600
0600
0600
0000
FFF0
FFF0
ENDCHAR

STARTCHAR char179
ENCODING 179
SWIDTH 16 0
DWIDTH 25 0
BBX 0 0 0 0
BITMAP
ENDCHAR

STARTCHAR char180
ENCODING 180
SWIDTH 0 0
DWIDTH 0 0
BBX 4 4 1 14
BITMAP
30
60
C0
80
ENDCHAR

STARTCHAR char182
ENCODING 182
SWIDTH 28 0
DWIDTH 18 0
BBX 11 22 2 -4
BITMAP
1FE0
3FE0
7C60
FC60
FC60
FC60
FC60
7C60
7C60
3C60
0C60
0C60
0C60
0C60
0C60
0C60
0C60
0C60
0C60
0C60
0C60
0C60
ENDCHAR

STARTCHAR char183
ENCODING 183
SWIDTH 14 0
DWIDTH 4 0
BBX 3 3 2 6
BITMAP
E0
E0
E0
ENDCHAR

STARTCHAR char184
ENCODING 184
SWIDTH 0 0
DWIDTH 0 0
BBX 3 4 -2 -5
BITMAP
C0
C0
40
80
ENDCHAR

STARTCHAR char186
ENCODING 186
SWIDTH 0 0
DWIDTH 0 0
BBX 6 2 0 20
BITMAP
7C
9C
ENDCHAR

STARTCHAR char187
ENCODING 187
SWIDTH 3 0
DWIDTH 11 0
BBX 9 9 0 2
BITMAP
2200
6300
3300
1980
1180
3300
E600
8C00
8800
ENDCHAR

STARTCHAR char189
ENCODING 189
SWIDTH 16 0
DWIDTH 25 0
BBX 0 0 0 0
BITMAP
ENDCHAR

STARTCHAR char190
ENCODING 190
SWIDTH 16 0
DWIDTH 25 0
BBX 0 0 0 0
BITMAP
ENDCHAR

STARTCHAR char191
ENCODING 191
SWIDTH 35 0
DWIDTH 10 0
BBX 10 18 -1 0
BITMAP
0180
0180
0000
0000
0000
0300
0300
0600
0E00
1C00
3800
7000
E000
C080
C180
E180
7F00
3E00
ENDCHAR

STARTCHAR char192
ENCODING 192
SWIDTH 3 0
DWIDTH 11 0
BBX 12 22 -2 0
BITMAP
0180
00C0
00C0
0000
00E0
00E0
01E0
0160
0360
0260
0660
0460
0C60
0C60
1870
1FF0
3FF0
3030
6030
6030
C030
C030
ENDCHAR

STARTCHAR char193
ENCODING 193
SWIDTH 3 0
DWIDTH 11 0
BBX 14 22 -3 0
BITMAP
0018
0030
0020
0000
0070
00F0
00F0
01B0
01B0
0330
0330
0630
0630
0C30
0C38
1FF8
1FF8
3838
3018
7018
6018
6018
ENDCHAR

STARTCHAR char194
ENCODING 194
SWIDTH 3 0
DWIDTH 11 0
BBX 13 22 -2 0
BITMAP
00F0
0190
0318
0000
00E0
01E0
01E0
0360
0360
0660
0660
0460
0C60
0860
1870
1FF0
3FF0
3030
6030
6030
C030
C030
ENDCHAR

STARTCHAR char195
ENCODING 195
SWIDTH 3 0
DWIDTH 11 0
BBX 13 22 -2 0
BITMAP
01F8
0370
0000
0000
00E0
01E0
01E0
0360
0360
0660
0660
0C60
0C60
1860
1870
3FF0
3FF0
7030
6030
E030
C030
C030
ENDCHAR

STARTCHAR char196
ENCODING 196
SWIDTH 3 0
DWIDTH 11 0
BBX 13 22 -2 0
BITMAP
0198
0198
0000
0000
00E0
00E0
01E0
0160
0360
0260
0660
0660
0C60
0C60
1870
1FF0
3FF0
3030
6030
6030
C030
C030
ENDCHAR

STARTCHAR char197
ENCODING 197
SWIDTH 3 0
DWIDTH 11 0
BBX 12 24 -2 0
BITMAP
00E0
01F0
0190
0190
01F0
00E0
0060
00E0
01E0
0160
0360
0260
0660
0460
0C60
0C60
1870
1FF0
3FF0
3030
6030
6030
C030
C030
ENDCHAR

STARTCHAR char198
ENCODING 198
SWIDTH 31 0
DWIDTH 19 0
BBX 21 18 -1 0
BITMAP
003FF8
003FF8
006C00
006C00
00CC00
01D800
019800
031800
031FE0
061FE0
0E3000
0FF000
1FF000
183000
386000
706000
607FC0
E07FC0
ENDCHAR

STARTCHAR char199
ENCODING 199
SWIDTH 10 0
DWIDTH 13 0
BBX 12 23 0 -5
BITMAP
07C0
0FE0
1C30
3830
3030
7030
7000
6000
E000
E000
C000
C000
C060
C060
C0C0
61C0
7F80
1F00
0000
0C00
1C00
0800
1800
ENDCHAR

STARTCHAR char200
ENCODING 200
SWIDTH 3 0
DWIDTH 11 0
BBX 13 22 -1 0
BITMAP
0300
0300
0180
0000
0FF0
0FF0
0C00
1C00
1800
1800
1800
1800
3FE0
3FE0
3000
3000
3000
6000
6000
6000
7FC0
7F80
ENDCHAR

STARTCHAR char201
ENCODING 201
SWIDTH 3 0
DWIDTH 11 0
BBX 13 22 -1 0
BITMAP
0060
00C0
0180
0000
0FF0
0FF0
0C00
1C00
1800
1800
1800
1800
3FE0
3FE0
3000
3000
3000
6000
6000
6000
7FC0
7F80
ENDCHAR

STARTCHAR char202
ENCODING 202
SWIDTH 3 0
DWIDTH 11 0
BBX 13 22 -1 0
BITMAP
01C0
0360
0620
0000
0FF0
0FF0
0C00
1C00
1800
1800
1800
1800
3FE0
3FE0
3000
3000
3000
6000
6000
6000
7FC0
7F80
ENDCHAR

STARTCHAR char203
ENCODING 203
SWIDTH 3 0
DWIDTH 11 0
BBX 13 22 -1 0
BITMAP
0370
0660
0000
0000
0FF0
0FF0
0C00
1C00
1800
1800
1800
1800
3FE0
3FE0
3000
3000
3000
6000
6000
6000
7FC0
7F80
ENDCHAR

STARTCHAR char204
ENCODING 204
SWIDTH 17 0
DWIDTH 5 0
BBX 5 22 0 0
BITMAP
30
18
08
00
18
18
18
18
18
30
30
30
30
70
60
60
60
60
E0
C0
C0
C0
ENDCHAR

STARTCHAR char205
ENCODING 205
SWIDTH 17 0
DWIDTH 5 0
BBX 8 22 0 0
BITMAP
06
04
08
00
18
18
18
18
18
30
30
30
30
70
60
60
60
60
E0
C0
C0
C0
ENDCHAR

STARTCHAR char206
ENCODING 206
SWIDTH 17 0
DWIDTH 5 0
BBX 8 22 0 0
BITMAP
1E
32
63
00
18
18
18
18
18
30
30
30
30
70
60
60
60
60
E0
C0
C0
C0
ENDCHAR

STARTCHAR char207
ENCODING 207
SWIDTH 17 0
DWIDTH 5 0
BBX 8 22 0 0
BITMAP
33
33
00
00
18
18
18
18
18
30
30
30
30
70
60
60
60
60
E0
C0
C0
C0
ENDCHAR

STARTCHAR char209
ENCODING 209
SWIDTH 13 0
DWIDTH 14 0
BBX 15 22 -1 0
BITMAP
01C8
01F8
0000
0000
0E06
0E06
0A06
1B0C
1B0C
1B0C
1B0C
1B08
3118
3198
3198
3198
6190
61B0
60B0
60F0
60F0
40E0
ENDCHAR

STARTCHAR char210
ENCODING 210
SWIDTH 10 0
DWIDTH 13 0
BBX 13 22 0 0
BITMAP
0300
0180
0180
0000
07C0
0FF0
1C30
3818
3018
3018
6018
6018
6018
E038
C030
C030
C030
C060
C060
60C0
71C0
1F00
ENDCHAR

STARTCHAR char211
ENCODING 211
SWIDTH 10 0
DWIDTH 13 0
BBX 13 22 0 0
BITMAP
0060
00C0
0080
0000
07C0
0FF0
1C30
1818
3018
3018
6018
6018
6018
E038
C030
C030
C030
C060
C060
60C0
71C0
1F00
ENDCHAR

STARTCHAR char212
ENCODING 212
SWIDTH 10 0
DWIDTH 13 0
BBX 13 22 0 0
BITMAP
01E0
0320
0630
0000
07C0
0FF0
1C30
3818
3018
3018
6018
6018
6018
E038
C030
C030
C030
C060
C060
60C0
71C0
1F00
ENDCHAR

STARTCHAR char213
ENCODING 213
SWIDTH 10 0
DWIDTH 13 0
BBX 13 22 0 0
BITMAP
0390
03F0
0000
0000
07C0
0FF0
1C30
1818
3018
3018
6018
6018
6018
E038
C030
C030
C030
C060
C060
60C0
71C0
1F00
ENDCHAR

STARTCHAR char214
ENCODING 214
SWIDTH 10 0
DWIDTH 13 0
BBX 13 22 0 0
BITMAP
0330
0330
0000
0000
07C0
0FF0
1C30
3818
3018
3018
6018
6018
6018
E038
C030
C030
C030
C060
C060
60C0
71C0
1F00
ENDCHAR

STARTCHAR char216
ENCODING 216
SWIDTH 10 0
DWIDTH 13 0
BBX 16 18 -1 0
BITMAP
01F2
03FA
070C
0E0C
0C1C
181C
182C
184C
308C
318C
330C
321C
3418
3818
3030
3070
7FE0
4FC0
ENDCHAR

STARTCHAR char217
ENCODING 217
SWIDTH 10 0
DWIDTH 13 0
BBX 13 22 0 0
BITMAP
0300
0300
0180
0000
1818
1818
3018
3018
3018
3030
7030
6030
6030
6030
6060
E060
C060
C060
C0C0
E0C0
7F80
3F00
ENDCHAR

STARTCHAR char218
ENCODING 218
SWIDTH 10 0
DWIDTH 13 0
BBX 13 22 0 0
BITMAP
0060
00C0
0080
0000
1818
1818
3018
3018
3018
3030
7030
6030
6030
6030
6060
E060
C060
C060
C0C0
E0C0
7F80
3F00
ENDCHAR

STARTCHAR char219
ENCODING 219
SWIDTH 10 0
DWIDTH 13 0
BBX 13 22 0 0
BITMAP
01C0
0360
0620
0000
1818
1818
3018
3018
3018
3030
7030
6030
6030
6030
6060
E060
C060
C060
C0C0
E0C0
7F80
3F00
ENDCHAR

STARTCHAR char220
ENCODING 220
SWIDTH 10 0
DWIDTH 13 0
BBX 13 22 0 0
BITMAP
0330
0330
0000
0000
1818
1818
3018
3018
3018
3030
7030
6030
6030
6030
6060
C060
C060
C060
C0C0
E0C0
7F80
3F00
ENDCHAR

STARTCHAR char221
ENCODING 221
SWIDTH 16 0
DWIDTH 25 0
BBX 0 0 0 0
BITMAP
ENDCHAR

STARTCHAR char222
ENCODING 222
SWIDTH 16 0
DWIDTH 25 0
BBX 0 0 0 0
BITMAP
ENDCHAR

STARTCHAR char223
ENCODING 223
SWIDTH 3 0
DWIDTH 11 0
BBX 12 18 -1 0
BITMAP
03C0
07E0
0C30
1830
1830
1830
1860
13C0
3380
30E0
3060
3060
6060
6060
60C0
60C0
CF80
C700
ENDCHAR

STARTCHAR char224
ENCODING 224
SWIDTH 35 0
DWIDTH 10 0
BBX 10 18 -1 0
BITMAP
0C00
0600
0600
0200
0000
0F80
1FC0
30C0
00C0
01C0
0780
3F80
7180
C180
C180
C300
FF80
7980
ENDCHAR

STARTCHAR char225
ENCODING 225
SWIDTH 35 0
DWIDTH 10 0
BBX 10 18 -1 0
BITMAP
00C0
0180
0100
0200
0000
0F80
1FC0
30C0
00C0
01C0
0780
3F80
7180
C180
C180
C300
FD80
7980
ENDCHAR

STARTCHAR char226
ENCODING 226
SWIDTH 35 0
DWIDTH 10 0
BBX 10 18 -1 0
BITMAP
0380
0680
04C0
08C0
0000
0F80
1FC0
30C0
00C0
01C0
0780
3F80
7180
C180
C180
C300
FF80
7980
ENDCHAR

STARTCHAR char227
ENCODING 227
SWIDTH 35 0
DWIDTH 10 0
BBX 11 18 -1 0
BITMAP
0700
0FC0
0980
0000
0000
0F80
1FC0
30C0
00C0
01C0
0780
3F80
7180
C180
C180
C300
FF80
7980
ENDCHAR

STARTCHAR char228
ENCODING 228
SWIDTH 35 0
DWIDTH 10 0
BBX 10 17 -1 0
BITMAP
0CC0
0CC0
0000
0000
0F80
1EC0
30C0
00C0
01C0
07C0
3F80
7180
C180
C180
C300
FD80
7980
ENDCHAR

STARTCHAR char229
ENCODING 229
SWIDTH 35 0
DWIDTH 10 0
BBX 10 19 -1 0
BITMAP
0700
0F80
0C80
0C80
0F80
0700
0F80
1FC0
30C0
00C0
00C0
0780
3F80
7180
E180
C180
C300
FF80
3D80
ENDCHAR

STARTCHAR char230
ENCODING 230
SWIDTH 21 0
DWIDTH 16 0
BBX 16 13 -1 0
BITMAP
1FBE
3FFE
30C3
00C3
0183
07FF
3FFF
6180
C180
C386
C386
FFFC
7C78
ENDCHAR

STARTCHAR char231
ENCODING 231
SWIDTH 35 0
DWIDTH 10 0
BBX 9 18 0 -5
BITMAP
1F00
3780
6180
6080
6000
C000
C000
C000
C000
C300
C300
7E00
3C00
0000
3000
3000
1000
2000
ENDCHAR

STARTCHAR char232
ENCODING 232
SWIDTH 35 0
DWIDTH 10 0
BBX 9 18 0 0
BITMAP
1800
0C00
0400
0600
0000
1F00
3F80
6180
6180
4180
FF80
FF80
C000
C000
C100
C300
7E00
3C00
ENDCHAR

STARTCHAR char233
ENCODING 233
SWIDTH 35 0
DWIDTH 10 0
BBX 9 18 0 0
BITMAP
0180
0300
0200
0400
0000
1F00
3F80
6180
6180
4180
FF80
FF80
C000
C000
C100
C300
7E00
3C00
ENDCHAR

STARTCHAR char234
ENCODING 234
SWIDTH 35 0
DWIDTH 10 0
BBX 9 18 0 0
BITMAP
0600
0D00
0980
1980
0000
1F00
3F80
6180
6180
4180
FF80
FF80
C000
C000
C100
C300
7E00
3C00
ENDCHAR

STARTCHAR char235
ENCODING 235
SWIDTH 35 0
DWIDTH 10 0
BBX 10 17 0 0
BITMAP
1980
1980
0000
0000
1F00
3F80
6180
6180
4180
FF80
FF80
C000
C000
C100
C300
7E00
3C00
ENDCHAR

STARTCHAR char236
ENCODING 236
SWIDTH 17 0
DWIDTH 5 0
BBX 4 18 0 0
BITMAP
60
60
30
10
00
30
30
30
30
60
60
60
60
40
C0
C0
C0
C0
ENDCHAR

STARTCHAR char237
ENCODING 237
SWIDTH 17 0
DWIDTH 5 0
BBX 7 18 0 0
BITMAP
0C
0C
18
30
00
30
30
30
30
60
60
60
60
C0
C0
C0
C0
C0
ENDCHAR

STARTCHAR char238
ENCODING 238
SWIDTH 17 0
DWIDTH 5 0
BBX 7 18 0 0
BITMAP
18
3C
64
C6
00
30
30
30
30
60
60
60
60
40
C0
C0
C0
C0
ENDCHAR

STARTCHAR char239
ENCODING 239
SWIDTH 17 0
DWIDTH 5 0
BBX 7 17 0 0
BITMAP
66
66
00
00
30
30
30
30
60
60
60
60
40
C0
C0
C0
C0
ENDCHAR

STARTCHAR char241
ENCODING 241
SWIDTH 3 0
DWIDTH 11 0
BBX 11 18 -1 0
BITMAP
0700
07E0
04C0
0000
0000
1BC0
1FE0
1860
3060
3060
3040
3040
20C0
60C0
60C0
60C0
6180
C180
ENDCHAR

STARTCHAR char242
ENCODING 242
SWIDTH 3 0
DWIDTH 11 0
BBX 10 18 0 0
BITMAP
1C00
0C00
0400
0600
0000
1F00
3F80
71C0
60C0
40C0
C0C0
C0C0
C1C0
C180
C180
C380
7F00
3C00
ENDCHAR

STARTCHAR char243
ENCODING 243
SWIDTH 3 0
DWIDTH 11 0
BBX 10 18 0 0
BITMAP
0180
0300
0300
0600
0000
1F00
3F80
71C0
60C0
40C0
C0C0
C0C0
C1C0
C180
C180
C380
7F00
3C00
ENDCHAR

STARTCHAR char244
ENCODING 244
SWIDTH 3 0
DWIDTH 11 0
BBX 10 18 0 0
BITMAP
0700
0580
0C80
18C0
0000
1F00
3F80
71C0
60C0
40C0
C0C0
C0C0
C1C0
C180
C180
C380
7F00
3C00
ENDCHAR

STARTCHAR char245
ENCODING 245
SWIDTH 3 0
DWIDTH 11 0
BBX 10 18 0 0
BITMAP
0E40
0FC0
1180
0000
0000
1F00
3F80
71C0
60C0
40C0
C0C0
C0C0
C1C0
C180
C180
C380
7F00
3C00
ENDCHAR

STARTCHAR char246
ENCODING 246
SWIDTH 3 0
DWIDTH 11 0
BBX 10 17 0 0
BITMAP
0CC0
18C0
0000
0000
1F00
3F80
71C0
60C0
40C0
C0C0
C0C0
C1C0
C180
C180
C380
7F00
3C00
ENDCHAR

STARTCHAR char247
ENCODING 247
SWIDTH 10 0
DWIDTH 13 0
BBX 12 9 0 2
BITMAP
0E00
0E00
0E00
0000
FFF0
FFF0
0E00
0E00
0E00
ENDCHAR

STARTCHAR char248
ENCODING 248
SWIDTH 3 0
DWIDTH 11 0
BBX 12 14 -1 0
BITMAP
0010
07B0
1FE0
18E0
30E0
3160
3260
6460
6860
78C0
70C0
61C0
FF80
9E00
ENDCHAR

STARTCHAR char249
ENCODING 249
SWIDTH 3 0
DWIDTH 11 0
BBX 11 18 0 0
BITMAP
0C00
0C00
0600
0200
0000
3060
30C0
20C0
60C0
60C0
60C0
4180
4180
C180
C180
C300
FF00
7900
ENDCHAR

STARTCHAR char250
ENCODING 250
SWIDTH 3 0
DWIDTH 11 0
BBX 11 18 0 0
BITMAP
0180
0180
0300
0600
0000
3060
30C0
20C0
60C0
60C0
60C0
6180
4180
C180
C180
C300
FF00
7900
ENDCHAR

STARTCHAR char251
ENCODING 251
SWIDTH 3 0
DWIDTH 11 0
BBX 11 18 0 0
BITMAP
0300
0780
0C80
18C0
0000
3060
30C0
20C0
60C0
60C0
60C0
4180
4180
C180
C180
C300
FF00
7900
ENDCHAR

STARTCHAR char252
ENCODING 252
SWIDTH 3 0
DWIDTH 11 0
BBX 11 17 0 0
BITMAP
0CC0
0CC0
0000
0000
3060
30C0
20C0
60C0
60C0
6080
4180
4180
C180
C180
C300
FF00
7900
ENDCHAR

STARTCHAR char255
ENCODING 255
SWIDTH 32 0
DWIDTH 9 0
BBX 12 21 -3 -4
BITMAP
0660
0E60
0000
0000
1870
1860
1860
18C0
18C0
1980
1980
1B00
1B00
1E00
1E00
1C00
1C00
1800
1800
7000
E000
ENDCHAR
ENDFONT
